# Blender v2.74 (sub 0) OBJ File: 'Male_Commander.blend'
# www.blender.org
mtllib Command_Throne.mtl
o CommandThrone.001_Cylinder.005
v 51.537449 -32.210686 88.998543
v -1.663159 -32.210686 76.178589
v 48.982525 -32.210686 99.601044
v -4.218082 -32.210686 86.781082
v -24.539808 -24.503649 125.474213
v -35.655254 -20.288103 146.638321
v 7.669115 -22.547480 89.645592
v 3.416994 -32.210686 106.035767
v -16.222311 -24.262297 128.843567
v 7.669115 -28.989616 89.645592
v 7.669115 -25.768549 89.645592
v 40.207119 -32.210686 114.901230
v 42.380722 -23.652849 114.628044
v 45.898796 -22.547480 111.487556
v 44.634258 -23.652849 113.276443
v -1.663159 32.210686 76.178589
v 48.982525 32.210686 99.601044
v -4.218082 32.210686 86.781082
v -24.539808 24.503649 125.474213
v -28.168022 20.288103 148.442551
v -35.655254 20.288103 146.638321
v -31.160563 9.833797 164.838531
v -34.789677 9.833797 163.964005
v 3.416994 32.210686 106.035767
v -16.222311 24.262297 128.843567
v 7.669115 28.989616 89.645592
v 7.669115 25.768549 89.645592
v 44.567436 31.105318 113.079491
v 42.313896 31.105318 114.431084
v 40.207119 32.210686 114.901230
v -28.168022 -20.288103 148.442551
v -31.160563 -9.833797 164.838531
v -34.789677 -9.833797 163.964005
v 48.982525 -22.547480 99.601044
v 3.416994 -22.547480 106.035767
v 44.634258 -31.105318 113.276443
v 45.898796 -32.210686 111.487556
v 42.380722 -31.105318 114.628044
v 40.207119 -22.547480 114.901230
v 51.537449 32.210686 88.998543
v 7.669115 22.547480 89.645592
v 48.982525 22.547480 99.601044
v 3.416994 22.547480 106.035767
v 45.898796 32.210686 111.487556
v 42.313896 23.652849 114.431084
v 40.207119 22.547480 114.901230
v 45.898796 22.547480 111.487556
v 44.567436 23.652849 113.079491
vt 0.327684 0.611348
vt 0.645408 0.611348
vt 0.645408 0.674668
vt 0.767429 0.453514
vt 0.766535 0.195849
vt 0.859038 0.272699
vt 0.914716 0.391422
vt 0.905359 0.256500
vt 0.957287 0.260985
vt 0.731443 0.309949
vt 0.709770 0.309949
vt 0.715180 0.195849
vt 0.865678 0.080170
vt 0.958181 0.003320
vt 0.383990 0.101617
vt 0.385229 0.030330
vt 0.412712 0.003320
vt 0.639098 0.242965
vt 0.646106 0.254925
vt 0.646127 0.270227
vt 0.810001 0.583950
vt 0.766535 0.594447
vt 0.746161 0.902708
vt 0.783564 0.804396
vt 0.802265 0.902708
vt 0.003320 0.101632
vt 0.059425 0.101632
vt 0.049468 0.276381
vt 0.321245 0.101632
vt 0.321245 0.003320
vt 0.308127 0.409643
vt 0.072543 0.409643
vt 0.247430 0.506411
vt 0.133240 0.506411
vt 0.223038 0.822567
vt 0.223038 0.878671
vt 0.003320 0.878671
vt 0.697638 0.236322
vt 0.690234 0.223703
vt 0.690106 0.208384
vt 0.576123 0.513051
vt 0.356406 0.513051
vt 0.856416 0.788688
vt 0.800311 0.788688
vt 0.819013 0.690376
vt 0.377350 0.101632
vt 0.331202 0.276381
vt 0.321044 0.513051
vt 0.321044 0.576371
vt 0.003320 0.576371
vt 0.652049 0.618563
vt 0.871766 0.618564
vt 0.871766 0.674668
vt 0.689629 0.270241
vt 0.689647 0.254938
vt 0.696627 0.242963
vt 0.251759 0.674668
vt 0.032042 0.674668
vt 0.003320 0.681309
vt 0.059425 0.744629
vt 0.003320 0.744629
vt 0.715180 0.538239
vt 0.709770 0.424139
vt 0.731444 0.424139
vt 0.383990 0.363438
vt 0.630722 0.363438
vt 0.412712 0.461734
vt 0.630722 0.101617
vt 0.377350 0.681308
vt 0.321246 0.744629
vt 0.059425 0.815926
vt 0.003320 0.815926
vt 0.639178 0.236322
vt 0.646602 0.223787
vt 0.639070 0.195849
vt 0.646474 0.208468
vt 0.697530 0.195849
vt 0.377350 0.744628
vt 0.377350 0.815926
vt 0.321246 0.815926
vt 0.696717 0.282675
vt 0.327684 0.674668
vt 0.819358 0.449029
vt 0.958181 0.401919
vt 0.759895 0.195849
vt 0.632429 0.003320
vt 0.639070 0.282675
vt 0.746161 0.804396
vt 0.856416 0.795328
vt 0.059425 0.003320
vt 0.003320 0.822567
vt 0.328923 0.540061
vt 0.746161 0.681308
vt 0.837714 0.690376
vt 0.856416 0.690376
vt 0.003320 0.513051
vt 0.652049 0.674668
vt 0.004559 0.647658
vt 0.759895 0.538239
vt 0.385229 0.434724
vt 0.632429 0.461734
vn 0.000000 -1.000000 -0.000000
vn -0.210500 -0.974000 0.083500
vn -0.041900 0.983900 0.174000
vn -0.124600 0.846800 0.517200
vn -0.210500 0.974000 0.083500
vn 0.438000 -0.524200 0.730300
vn -0.041900 -0.983900 0.174000
vn -0.968000 0.000000 -0.251100
vn 0.757800 0.000000 0.652500
vn 0.968000 0.000000 0.251100
vn 0.853900 0.000000 0.520500
vn 0.983700 0.000000 0.179600
vn -0.234300 0.000000 0.972200
vn 0.401700 0.624400 0.669800
vn 0.000000 1.000000 -0.000000
vn 0.438000 0.524200 0.730300
vn 0.972200 0.000000 0.234300
vn -0.124600 -0.846800 0.517200
vn 0.124700 0.000000 0.992200
vn 0.401700 -0.624400 0.669800
vn 0.816600 0.000000 0.577200
vn 0.217800 0.000000 0.976000
vn 0.767100 0.000000 0.641500
vn -0.079900 -0.960700 0.266000
vn -0.079900 0.960700 0.266000
vn -0.285200 0.951800 0.113100
vn -0.285200 -0.951800 0.113100
vn 0.364800 -0.277100 0.888900
vn 0.612400 -0.277100 0.740400
vn 0.612400 0.277100 0.740400
vn 0.364800 0.277100 0.888900
vn -0.200300 0.518200 0.831400
vn -0.200400 -0.518200 0.831400
vn 0.457500 -0.383600 0.802200
vn 0.457500 0.383600 0.802200
vn 0.595700 -0.227600 0.770300
vn 0.595700 0.227600 0.770300
vn 0.403800 0.229000 0.885700
vn 0.403800 -0.229000 0.885700
usemtl None
s off
f 3/1/1 4/2/1 2/3/1
f 5/4/2 4/5/2 8/6/2
f 20/7/3 25/8/3 19/9/3
f 23/10/4 22/11/4 20/12/4
f 24/13/5 18/14/5 19/9/5
f 42/15/1 47/16/1 46/17/1
f 47/18/6 48/19/6 45/20/6
f 31/21/7 6/22/7 5/4/7
f 35/23/8 10/24/8 8/25/8
f 8/26/9 35/27/9 9/28/9
f 9/28/9 35/27/9 43/29/9
f 41/30/10 43/29/10 35/27/10
f 20/31/11 31/32/11 9/28/11
f 20/31/12 22/33/12 32/34/12
f 35/35/13 8/36/13 12/37/13
f 39/38/14 13/39/14 15/40/14
f 8/41/1 3/1/1 12/42/1
f 43/43/8 24/44/8 26/45/8
f 24/46/9 25/47/9 43/29/9
f 16/48/15 18/49/15 17/50/15
f 30/51/13 24/52/13 43/53/13
f 29/54/16 28/55/16 44/56/16
f 17/50/15 24/57/15 30/58/15
f 1/59/17 34/60/17 3/61/17
f 31/62/18 32/63/18 33/64/18
f 34/65/15 7/66/15 39/67/15
f 41/68/13 7/66/13 34/65/13
f 40/69/17 42/70/17 34/60/17
f 34/60/10 14/71/10 37/72/10
f 12/73/19 38/74/19 13/39/19
f 12/73/20 37/75/20 36/76/20
f 14/77/21 15/40/21 36/76/21
f 40/69/17 17/78/17 42/70/17
f 44/79/10 47/80/10 42/70/10
f 45/20/22 29/54/22 30/81/22
f 44/56/23 28/55/23 48/19/23
f 1/82/1 3/1/1 2/3/1
f 9/83/24 5/4/24 8/6/24
f 21/84/3 20/7/3 19/9/3
f 21/85/4 23/10/4 20/12/4
f 25/8/25 24/13/25 19/9/25
f 46/17/1 41/68/1 42/15/1
f 41/68/1 46/17/1 43/86/1
f 46/87/6 47/18/6 45/20/6
f 9/83/7 31/21/7 5/4/7
f 11/24/8 35/23/8 7/88/8
f 10/24/26 4/89/26 8/25/26
f 10/24/8 35/23/8 11/24/8
f 25/47/9 9/28/9 43/29/9
f 7/90/10 41/30/10 35/27/10
f 25/47/11 20/31/11 9/28/11
f 31/32/12 20/31/12 32/34/12
f 39/91/13 35/35/13 12/37/13
f 14/77/14 39/38/14 15/40/14
f 3/1/1 8/41/1 4/2/1
f 3/1/1 37/92/1 12/42/1
f 24/44/27 18/93/27 26/45/27
f 27/94/8 41/95/8 43/43/8
f 43/43/8 26/45/8 27/94/8
f 40/96/15 16/48/15 17/50/15
f 46/97/13 30/51/13 43/53/13
f 30/81/16 29/54/16 44/56/16
f 24/57/15 17/50/15 18/49/15
f 17/50/15 30/58/15 44/98/15
f 6/99/18 31/62/18 33/64/18
f 39/67/15 14/100/15 34/65/15
f 7/66/15 35/101/15 39/67/15
f 42/15/13 41/68/13 34/65/13
f 1/59/17 40/69/17 34/60/17
f 3/61/10 34/60/10 37/72/10
f 39/38/19 12/73/19 13/39/19
f 38/74/20 12/73/20 36/76/20
f 37/75/21 14/77/21 36/76/21
f 17/78/10 44/79/10 42/70/10
f 46/87/22 45/20/22 30/81/22
f 47/18/23 44/56/23 48/19/23
s 27
f 38/74/28 36/76/29 15/40/30
f 13/39/31 38/74/28 15/40/30
s 29
f 23/10/32 33/64/33 32/63/34
f 22/11/35 23/10/32 32/63/34
s 34
f 48/19/36 28/55/37 29/54/38
f 45/20/39 48/19/36 29/54/38
